<svg xmlns="http://www.w3.org/2000/svg" viewBox="0 0 975 610" role="img" aria-label="US metro price-to-rent choropleth" data-source="fixtures" data-snapshot-month="2026-05" data-joined-count="15">
  <style>path{stroke:#fff;stroke-width:.5}.p2r-b1{fill:#d9d9d9}.p2r-b2{fill:#bdbdbd}.p2r-b3{fill:#969696}.p2r-b4{fill:#636363}.p2r-b5{fill:#252525}</style>
  <path d="M696.01,403.83L699.23,403.53L699.22,403.37L702.25,403.07L702.12,401.96L703.44,401.85L704.05,398.99L703.83,398.77L701.83,399L701.8,398.7L701.53,396.02L701.92,396L701.58,392.95L701.91,392.91L701.78,391.89L702.76,391.96L702.85,391.61L703.8,391.56L706.78,391.21L706.74,390.82L708.23,390.65L707.84,387.56L710.62,387.2L713.05,386.95L713.78,386.03L714.52,386.28L715.13,386.23L715.05,385.57L716.24,385.29L716.69,384.19L717.25,383.75L717.76,383.94L718.29,383.88L718.94,384.05L719.08,383.36L719.59,383.13L719.7,382.24L720.44,381.57L722,381.81L721.9,383.79L722.18,384.23L722.37,385.71L722.79,386.09L722.89,386.7L722.91,386.88L722.17,387.63L721.36,387.73L721.43,388.14L720.69,388.69L720.8,389.28L720.65,389.8L721.08,390.74L722,392.03L721.53,392.34L721.69,392.97L721.33,393.27L721.08,394.08L720.14,394.22L719.82,394.84L723.61,395.97L724.45,395.22L725.01,395.77L725.07,396.06L725.88,396.49L726.46,396.6L727.63,396.51L729.04,396.6L729.45,396.76L730.13,398.19L728.41,399.75L728.64,400.21L729.55,400.2L729.77,400.93L730.62,401.35L731.24,401.48L731.66,401.77L732.19,402.48L732.56,403.47L733.36,403.94L734.14,404.8L734.76,406.01L736.05,407.15L736.36,408.5L734.35,409.23L731.77,410.24L731.82,411.15L732.33,416.2L727.4,417.76L727.1,416.79L726.65,416.36L726.05,416.32L722.98,416.69L721.43,416.89L721.5,417.43L719.62,417.67L719.15,417.5L719.55,420.9L719.2,421.12L719.29,422.03L718.72,421.9L718.75,422.1L715.15,422.47L714.62,424.06L714.97,424.38L715.14,425.05L714.04,426.03L711.6,426.33L710.27,425.96L708.77,426.13L708.49,426.08L708.2,424.06L707.55,418.09L706.11,418.24L703.46,419.77L700.77,421.04L698.61,413.17L696.94,407.22Z" class="p2r-b3" data-region-id="394347" data-ratio="17.34"><title>Atlanta, GA — P2R 17.34 (2026-05)</title></path>
  <path d="M893.14,162.9L895.61,162.35L902.92,160.66L903.41,159.44L903.11,159.22L901.56,159.25L901.25,158.7L900.68,158.25L900.04,158.4L899.04,156.19L900.2,155.67L899.52,154.2L899.35,153.53L899.55,151.99L899.84,150.5L900.27,147.7L900.39,147.45L901.2,145.58L899.75,142.19L900.05,141.55L900.4,140.65L901.06,142.03L901.62,141.41L902.08,141.22L902.58,142.19L903.22,140.65L903.47,141.1L903.42,141.89L903.84,142.91L903.58,143.55L903.85,144.38L904.31,145.01L904.82,145.03L905.26,145.32L906.08,146.23L907.3,146.7L907.58,148.11L907.59,148.77L907.82,149.18L909.55,149.97L910.18,150.13L909.65,152.71L909.46,153.16L909.39,153.96L909.61,155.22L910.23,156.69L911.19,158.11L911.24,158.56L912.11,158.9L912.81,158.97L913.49,157.98L913.85,158.54L914.26,158.47L914.3,159.06L913.99,159.57L914.03,159.96L913.35,160.31L913.01,160.88L912.51,160.96L912.02,161.48L910.75,162.15L910.86,162.74L911.28,163.21L910.84,163.69L910.73,164.15L910.24,164.13L909.67,164.88L909.49,165.76L909.91,166.16L909.55,166.57L909.57,167.15L909.09,167.85L909.35,168.32L910.97,169.19L911.47,168.42L912.17,168.84L912.14,167.9L912.57,168.21L914.09,168.23L914.23,168.54L915.17,169.02L915.19,169.47L916.05,170.46L917.04,171.23L917.24,172.2L916.89,172.51L917.05,173.05L916.6,173.16L916.7,173.74L917.77,174.35L918.45,174.35L918.78,174.05L919.58,174.4L920.27,175.8L920.21,176.65L920.39,176.91L920.08,177.56L919.12,178.39L919.41,178.67L919.23,179.43L919.05,179.59L917.89,179.37L917.8,179.7L918.17,180.09L917.74,180.73L917.46,181.5L916.9,181.48L917.08,182.22L916.52,182.29L916.39,181.93L915.04,179.57L914.76,179.69L914.27,179.04L912.65,179.76L912.71,179.25L912.25,178.97L913.01,177.73L912.27,176.41L911.19,175.8L909.9,173L905.96,176.68L905.69,176.75L905.49,176L903.61,176.54L902.98,174.35L903.25,173.94L903.06,173.17L902.75,173.23L902.46,172.78L901.19,172.95L900.76,172.55L900.76,171.55L901.5,171.29L901.99,170.92L902.09,170.02L901.96,169.58L900.95,169.94L900.49,170.42L899.6,169.73L900.13,168.72L900.32,168.08L900.27,166.82L899.95,166.71L900.15,165.57L899.88,165.1L898.53,165.22L898.44,165.93L897.71,165.98L897.46,164.11L895.49,163.87L894.42,164.29L894,163.52Z" class="p2r-b3" data-region-id="394404" data-ratio="19.25"><title>Boston, MA — P2R 19.25 (2026-05)</title></path>
  <path d="M615.85,221.65L619.75,221.31L619.44,217.35L619.14,213.57L620.26,213.46L625.8,213.02L628.94,212.74L634.13,212.37L634.32,214.71L634.01,215.54L633.96,216.76L634.12,217.48L634.69,218.79L635.96,220.74L636.95,221.68L637.26,222.73L637.89,224.12L638.63,226.84L639.37,228.28L640.13,228.93L640.48,229.95L641.2,230.51L642.03,230.09L642.33,230.29L642.16,230.77L642.34,231.12L643.09,231.37L644.45,231.45L645.58,231.28L646.6,230.77L647.57,230.45L648.71,229.81L650.22,228.87L650.65,232.82L651.3,239.63L651.99,247.03L651.05,247.12L651.22,248.81L649.29,248.99L649.54,251.29L642.28,251.95L641.72,245.73L641.12,239.17L632.92,240.02L633.12,241.98L629.22,242.39L629.43,244.39L629.24,244.41L625.55,244.82L623.61,245L623.29,241.35L623.01,239.03L622.41,233.09L618.79,233.37L616.76,233.59L616.54,231.36L616.28,227.58L615.97,223.64Z" class="p2r-b2" data-region-id="394463" data-ratio="13.02"><title>Chicago, IL — P2R 13.02 (2026-05)</title></path>
  <path d="M459.15,435.01L461.68,435.11L461.85,429.72L461.96,425.22L470.06,425.37L475.08,425.65L480.27,425.91L482.2,426L482.2,426.16L485.72,426.3L490.78,426.4L490.79,427.7L493.28,427.32L500.67,426.13L500.62,430.5L500.61,435.95L499.06,435.96L498.44,438.1L498.27,438.4L498.82,439.02L496.56,439.2L496.58,446.75L496.57,450.15L489.42,450.11L489.84,450.73L490.72,450.8L486.08,453.56L480.88,456.55L480.01,457.04L477.28,452.15L475.86,452.48L469.82,453.95L469.82,454.15L469.13,454.41L468.93,455L468.07,454.65L468.06,454.08L467.18,453.42L467.2,450.78L467.27,445.4L461.53,445.24L458.72,445.14L458.91,440.81Z" class="p2r-b3" data-region-id="394514" data-ratio="18.21"><title>Dallas, TX — P2R 18.21 (2026-05)</title></path>
  <path d="M693.56,199.56L697.41,198.98L701.3,198.43L700.99,196.45L704.84,195.83L704.22,191.91L703.67,188L703.64,187.77L705.41,187.49L705.11,185.53L708.91,184.9L709.06,185.87L710.99,185.58L711.46,188.53L717.19,187.5L719.45,187.07L719.95,188.54L721.18,190.32L721.54,191.19L721,192.42L720.9,193.36L721.03,193.98L720.94,195.15L721.34,196.2L721.22,197.21L720.95,198.47L721.06,199.1L720.91,199.84L719.76,201.34L718.79,200.99L718.77,200.48L718.25,200.21L718.24,199.82L718.88,198.51L717.75,198.35L716.05,199.71L716.02,200.32L716.51,200.48L716.8,201.22L716.16,201.31L715.79,201.59L715.43,202.5L715.41,203.58L715.75,204.04L715.58,205.38L715.1,206.28L714.59,206.86L713.54,207.26L712.95,207.61L712.44,208.37L712.17,209.54L712.23,210.98L712.63,212.08L712.52,212.9L712.04,212.97L711.58,213.33L711.74,214.07L711.33,214.17L709.81,213.18L707.72,213.46L707.74,213.59L705.79,213.9L705.03,208.93L704.53,206.02L701.37,206.6L698.08,207.11L695.01,207.48L694.84,207.5L694.49,204.81L693.9,201.31Z" class="p2r-b2" data-region-id="394532" data-ratio="14.95"><title>Detroit, MI — P2R 14.95 (2026-05)</title></path>
  <path d="M521.31,519.03L521.54,518.39L522.14,518.84L521.81,519.3ZM518.16,510.9L518.65,511.05L518.9,511.59L518.55,511.98ZM515.45,524.4L515.94,523.74L517.06,522.93L517.47,522.43L518.04,522.08L518.59,521.44L518.93,521.39L519.39,520.66L519.98,520.25L520.31,519.81L521.36,519.35L521.81,519.39L522.42,518.72L523.21,518.85L521.88,519.93L519.97,521.2L517.28,523.09L516.12,523.99ZM496.2,498.72L496.28,498.63L499.53,498.45L501.86,498.24L501.85,496.15L501.57,492.4L501.33,489.51L505.84,492.25L510.47,492.22L510.76,489.58L510.88,487.01L511.09,484.23L511.34,483.94L511.36,483.37L512.54,483.15L512.95,483.61L512.72,484.06L512.96,484.65L513.41,484.85L514.92,485.98L514.92,486.5L514.65,486.84L514.62,487.46L515.15,488.36L515.62,488.72L516.42,488.28L517.01,488.96L517.33,489.96L516.95,490.6L518.17,490.61L518.69,491.01L519.27,490.94L519.96,491.29L520.58,491.29L520.78,491.62L520.12,492.09L520.24,492.47L521.92,492.56L522.74,492.53L525.54,501.08L528.5,501.02L528.64,506.15L530.29,506.12L530.52,513.2L530.5,513.47L527.84,514.7L525.05,516.08L524.09,516.7L523.57,517.21L523.08,518.01L522.17,518.18L522.4,517.52L523.63,516.46L524.16,515.61L524.89,515.63L525.54,515.37L525.76,514.82L526.41,514.26L527.6,514.72L528.19,513.65L527.19,514.03L526.73,513.33L526.41,513.29L525.63,513.62L522.44,514.48L522.69,513.82L523.63,511.85L523.85,510.62L523.69,509.13L522.99,508.43L521.35,509.18L520.65,510.03L520.23,511.17L519.31,511.5L518.84,510.57L518.15,510.33L517.46,510.41L518.08,511.06L517.71,511.33L517.44,512.09L518.08,512.78L517.4,513.83L517.46,514.17L518.22,514.82L519.51,515.15L518.73,515.79L519.92,516.55L520.03,517.62L520.45,518.07L519.63,518.69L519.93,519.02L519.66,519.39L519.06,519.26L518.4,519.99L517.14,521.64L515.92,522.42L515.54,521.91L514.73,522.03L514.87,522.39L514.55,523.71L515.41,524.83L512.89,526.94L512.04,527.9L511.13,528.56L510.28,529.43L509.23,529.66L507.84,530.44L506.62,530.35L506.4,529.67L505.14,528.68L504.88,527.6L504,527.19L502.69,527.26L502.43,526.58L502.45,525.5L502.69,525.15L502.15,524.91L501.87,524.45L501.16,524.27L501.2,523.34L500.98,523.07L501.23,522.51L501.09,521.87L500.52,521.3L501.15,520.65L500.4,520.47L500.04,519.74L500.14,519.47L498.99,518.88L499.23,518.4L498.67,517.86L498.56,517.2L498.18,516.68L497.86,516.79L497.29,516.41L496.84,515.41L497.09,514.96L496.94,514.39L497.21,514.12L496.84,513.62L496.8,513.09L496.17,512.82L495.73,512.39L495.22,512.46L494.57,512.14L494.1,511.64L492.9,511.34L492.56,510.66L492.7,510.25L492.31,510.02L491.88,509.36L491.82,508.68L491.51,508.04L490.57,507.79L489.9,507.79L489.47,507.26L488.49,506.83L487.49,505.91L485.82,502.79L486.53,502.32L487.84,502.33L492.41,501.64L492.94,502.1L493.53,502.1L494.82,502.62L495.08,501.9L494.28,500.76L494.99,499.81L494.91,499.13L495.18,498.85Z" class="p2r-b2" data-region-id="394692" data-ratio="15.67"><title>Houston, TX — P2R 15.67 (2026-05)</title></path>
  <path d="M822.86,581.67L823.06,580.74L823.55,580.5L823.24,581.69ZM804.33,548.25L809.72,547.4L814.4,546.63L819.28,545.84L819.23,545.53L820.48,545.32L821.58,547.69L822.12,549.04L822.11,549.73L822.38,550.85L822.74,553.35L822.84,554.66L822.86,557.21L823.15,561.13L823.08,561.56L823.2,564.98L823.42,567.29L823.65,569.28L823.99,571.16L823.94,572.15L823.65,573.27L823.06,572.84L822.45,572.95L821.93,573.47L821.89,574.13L821.34,576L820.94,576.43L821.18,577.12L821.08,577.96L820.77,578.19L820.69,578.84L820.8,579.55L821.2,580.17L821.31,581.08L821.77,581.55L821.24,582.57L820.7,582.87L820.66,583.26L820.67,583.67L820.32,583.98L820.41,584.51L820.04,584.95L819.56,584.85L818.52,585.43L818.73,585.81L818.04,585.58L817.84,585.79L816.79,586.06L814.9,587.21L814.36,587.79L814.1,587.65L812.49,587.85L811.97,587.98L811.25,587.73L810.94,586.28L810.51,583.6L810.28,583.64L808.71,573.86L808.02,569.55L807.28,565.71L806.95,563.8L806.64,561.87L805.58,556.04Z" class="p2r-b2" data-region-id="394856" data-ratio="14.72"><title>Miami, FL — P2R 14.72 (2026-05)</title></path>
  <path d="M899.23,195.78L899.39,195.18L900.32,194.89L899.81,195.59ZM866.63,221.28L866.78,221.01L866.58,220.47L867.11,220.01L867.16,218.95L866.91,218.32L867.28,217.91L867.66,218.01L868.85,217.47L869.51,218.35L868.8,219.83L867.77,220.75L867.64,221L866.84,221.51ZM850.64,222.95L851.21,221.95L851.77,221.57L852.16,220.92L853.01,220L853.7,219.5L854.44,217.66L855.24,216.94L855.47,215.95L855.73,215.42L855.58,214.94L856.04,214.25L851.84,210.91L851.43,211.05L851.52,210.65L852.34,209.76L852.8,208.65L852.98,207.67L852.81,207.55L853.05,206.34L853.22,205.91L853.89,205.03L854.1,204.49L855,204.02L859.46,205.56L861.61,206.38L863.7,207.04L866.92,202.01L867.12,201.4L867.1,200.37L866.32,199.47L866.83,198.2L870.8,196.67L872.44,195.97L873.25,195.75L874.15,200.99L875.71,202.55L872.27,206.01L873.95,207.7L874,208.23L874.09,208.68L873.81,209.19L872.79,210.31L872.54,211.02L872.46,211.7L872.11,211.88L872.26,212.36L873.18,213.2L873.21,212.06L873.66,211.84L873.47,211.27L873.73,211.09L874.91,211.19L874.68,210.68L874.81,210.2L875.93,209.48L876.27,209.57L876.54,210.25L877.14,210.13L877.22,209.67L877.02,208.98L877.11,208.49L877.94,208.55L878.52,209.14L879.37,208.93L879.41,208.45L878.53,208.5L878.58,207.92L879.15,208.33L880.37,208.22L881.57,208.35L882.78,207.51L882.56,206.69L883,206.33L884.1,206.34L885.75,205.91L886.45,205.83L887.74,205.32L888.74,205.19L889.75,204.63L890.92,204.24L891.67,203.68L892.54,202.47L893.15,202.03L893.48,201.15L894.21,200.72L894.67,199.57L895.2,199.46L895.8,198.83L896.42,198.82L896.01,199.65L895.41,199.38L895.09,200.17L895.57,200.54L896.23,200.59L896.54,201.53L897.07,201.2L897.96,201.26L898.3,200.7L898.81,200.87L898.9,201.23L899.38,201.67L899.77,201.78L900.35,200.88L900.87,200.72L901.13,200.11L901.72,199.94L901.54,199.44L902.37,198.87L903.24,199L903.04,199.5L901.81,200.41L900.81,201.3L899.57,202.28L895.52,205.8L894.43,206.64L891.55,208.64L889.96,209.67L887.67,211.4L886.36,212.5L885.28,213.26L883.39,214.38L882.55,214.8L881.82,215L881.43,214.82L881.02,214.96L880.04,215.67L877.64,217.03L876.94,216.96L876.47,217.19L875.4,217.42L874.2,217.54L873.29,218.09L871.74,219.23L871.65,219.02L872.54,218.48L872.16,218.12L870.71,218.84L870.51,218.42L869.87,218.24L869.58,217.81L869.95,216.88L869.51,215.69L868.61,217.08L868.68,217.37L867.79,217.81L867.71,217.12L867.09,217.9L866.85,218.45L867.03,219.84L866.44,220.36L866.67,220.92L866.45,221.79L866.75,222.26L868.01,222.53L868.92,221.99L870.56,222.45L871.83,222.46L872.17,223.6L872.38,224.85L872.43,226.27L872.4,228.98L872.6,232.32L872.85,234.99L873.17,237.41L872.8,239.07L871.83,242.45L871.26,243.69L870.65,243.9L869.76,244.27L868.85,243.12L869.11,242.14L868.19,238.19L865.12,233.78L864.39,232.68L862.99,230.81L862.68,229.92L863.16,229.53L863.34,228.88L864.24,228.06L864.07,227.37L863.24,227.11L862.81,227.26L862.17,226.91L861.41,226.69L861.24,226.47L861.28,225.57L860.6,225.42L859.54,226.03L858.86,225.04L857.89,225.42L858.15,226.11L857.05,226.53L857.44,227.17L856.01,227.61L855.4,226.5L854.78,226.27L854.34,226.55L853.69,226.35L853.31,225.56L853.31,224.93L852.91,223.61L852.26,223.15L851.6,223.11L851.02,223.49Z" class="p2r-b3" data-region-id="394913" data-ratio="17.31"><title>New York, NY — P2R 17.31 (2026-05)</title></path>
  <path d="M837.35,246.23L839.55,245.7L839.47,245.34L839.97,244.76L840.37,243.01L840.31,242.49L840.69,241.52L840.38,240.88L840.59,240.58L840.27,240.2L840.85,238.09L840.39,236.5L841.43,235.62L843.23,233.36L843.9,232.63L845.68,227.44L846.59,227.92L847.48,226.08L849.56,223.42L850.44,222.59L850.64,222.95L851.02,223.49L851.6,223.11L852.26,223.15L852.91,223.61L853.31,224.93L853.31,225.56L853.69,226.35L854.34,226.55L854.78,226.27L855.4,226.5L856.01,227.61L857.51,228.37L858.16,229.26L859.52,229.8L859.93,230.36L860.8,230.96L860.95,230.22L862.38,230.83L862.99,230.81L864.39,232.68L865.12,233.78L868.19,238.19L869.11,242.14L868.85,243.12L867.89,243.48L867.28,243.17L866.89,243.26L866.33,242.73L865.96,242.82L865.22,242.4L864.39,242.4L864.27,241.82L863.79,241.11L862.58,240.49L859.46,246.24L857.89,245.33L857.81,245.91L857.93,246.91L858.13,247.25L858.08,247.91L854.97,246.21L853.94,248.01L853.54,248.12L853.27,248.98L852.58,249.09L852.63,250.11L852.78,250.73L852.28,250.49L851.71,249.75L850.4,249.52L850.11,248.74L850.36,248.66L850.04,247.72L850.24,246.83L849.25,246.37L849.03,246.07L849.74,244.79L849.74,244.13L850.13,243.65L850.21,242.41L849.94,242L849.59,243.62L849,245.23L848.61,245.46L848.31,246.34L848.45,246.76L849.45,247.36L849.52,248.4L849.35,249.33L849.9,250.14L850.57,250.51L851.27,251.55L850.59,252.1L850.46,252.97L849.71,253.21L849.23,253.76L848.15,253.8L847.4,254.02L846.89,252.23L845.9,252.37L845.45,252.84L844.55,253.03L842.98,252.9L842.37,253.03L842.25,252.64L842.94,251.74L843.08,251.05L842.52,251.1L842.58,248.96L842.06,249L842.02,249.34L841.46,249.29L840.85,249.63L839.5,248.3L838.88,247.57L837.85,246.95Z" class="p2r-b3" data-region-id="394974" data-ratio="17"><title>Philadelphia, PA — P2R 17 (2026-05)</title></path>
  <path d="M176.22,383.23L179.73,383.87L187.04,385.19L195.19,389.36L195.25,389.11L196.08,388.72L196.06,388.14L197.14,387.19L197.83,386.66L197.88,385.97L205.77,388.42L210.03,389.12L210.56,389.07L211.11,389.67L210.66,390.11L210.67,390.74L211.39,391.22L211.13,391.97L211.49,392.54L211.27,392.94L211.64,393.47L211.16,394.47L211.09,395.09L211.58,395.38L211.89,395.89L211.9,396.66L212.12,396.81L212.92,398.33L213.37,398.52L213.96,398.26L215.16,397.42L216.42,402.22L217.25,405.52L217.44,407.68L219.56,414.14L220.71,413.35L221.03,412.8L220.92,412.39L221.79,412.11L221.96,411.61L222.36,411.6L222.89,411.03L223.63,411.33L224.11,411.15L225.45,410.41L226.22,410.6L226.53,410.37L225.69,415.97L224.17,425.74L224.12,425.73L216.73,424.58L216.72,424.65L210.85,423.71L210.8,423.91L203.08,422.68L203.1,422.54L195.86,421.33L191.19,420.53L185.25,419.5L181.41,418.87L175.74,417.85L170.01,416.8L171.1,410.92L172.93,401.09L173.6,397.22L174.69,391.34Z" class="p2r-b4" data-region-id="394976" data-ratio="21.45"><title>Phoenix, AZ — P2R 21.45 (2026-05)</title></path>
  <path d="M101.27,348.41L101.89,348.58L103.3,342.42L103.34,342.43L104.65,336.77L105.11,334.55L105.26,334.23L105.76,332.04L106.14,330.08L106.45,330.13L106.6,329.49L105.97,329.34L106.12,328.69L106.44,328.77L106.89,326.83L111.61,327.96L119.53,329.75L130.93,332.31L140.68,334.37L140.75,334.03L142.32,334.34L144.4,337.51L147.68,342.4L150.35,346.45L154.61,352.82L156.85,356.18L156.65,357.47L156.26,358.77L156.28,359.24L156.94,360.07L157.05,361.07L157.25,361.75L157.77,362.55L158.45,363.22L158.65,364.4L158.63,365.98L159.07,366.7L159.33,367.68L159.29,368.21L158.91,369.27L159.09,369.57L159.68,369.59L160.34,370.28L160.5,370.82L160.9,370.99L161.44,371.91L162.26,372.47L162.49,373.23L162.77,373.64L162.72,374.56L162.01,374.72L160.72,375.59L160.09,376.12L159.47,376.07L158.63,376.7L158.19,376.68L157.78,376.95L156.84,377.02L156.41,377.43L156.06,378.85L154.65,380L154.22,380.05L153.85,380.7L154.21,381.1L153.91,381.44L154.21,381.89L153.61,382.28L153.68,383L153.49,383.19L153.67,384.32L153.43,385.07L153.64,385.46L153.56,385.95L152.99,386.1L152.66,386.92L152.7,387.79L152.26,388.17L152.38,389.1L151.67,389.42L151.56,389.75L150.91,390.04L150.15,390.87L149.98,391.37L146.22,390.62L146.2,390.71L141.91,389.89L138.64,389.2L134.45,388.38L130.58,387.57L123.09,386.01L121.03,385.49L115.14,384.26L108.91,382.88L105.72,382.17L103.82,381.62L101.89,381.18L101.96,380.8L99.81,379.33L100.01,379.04L97.33,378.43L97.48,377.78L99.87,375.43L98.99,374.15L97.95,373.76L98.16,372.69L97.39,372.25L96.17,369.41L95.35,368.47L94.47,367.23L94.42,366.7L95.3,365.78L95.86,366.03L97.64,363.09L98.89,360.4L99.48,356.71L100.03,354.34L99.9,354.31Z" class="p2r-b3" data-region-id="395025" data-ratio="19.36"><title>Riverside, CA — P2R 19.36 (2026-05)</title></path>
  <path d="M39.18,255.88L39.64,255.91L40.6,256.42L40.77,256.88L41.53,257.11L42.75,256.84L43.29,257.06L44.11,257.1L45.21,257.93L45.85,257.97L46.16,257.7L46.64,258.88L47.11,259.11L48.03,259.15L49.22,258.67L49.33,258.2L49.75,257.98L51.14,258.41L50.75,259.5L51.04,260.22L50.61,260.41L50.42,261.02L50.58,261.45L50.51,262.3L49.8,263.32L50.36,264.1L49.84,264.66L48.18,270.69L48.67,271.26L49.03,271.36L49.03,271.9L49.27,272.44L49.25,272.44L45.87,271.48L42.53,270.51L42.19,270.72L41.31,270.9L41.18,270.65L40.41,270.48L40.17,270.28L39.37,270.15L39.31,269.37L38.44,269L38.56,268.35L38.33,266.88L38.57,265.66L38.53,264.81L37.86,264.1L37.39,263.35L37.69,262.79L36.61,261.82L36.48,261.42L36.93,260.79L37.26,260.86L37.36,260.25L37.07,259.71L37.47,259.37L37.11,258.86L36.54,258.82L35.99,258.02L36.13,257.32L36.99,257.21L37.16,256.54L37.74,256.85L38.34,256.81L39.2,256.24ZM38.12,269.72L37.82,269.95L37.18,269.77L36.6,270.13L36.31,271.16L35.97,271.64L36.37,273.51L35.91,275.07L34.36,274.63L34.2,275.19L32.89,274.89L32.75,275.77L32.82,276.77L32.12,276.24L32.23,275.91L31.92,275.49L31.96,274.95L31.45,274.26L31.56,273.03L31.77,272.68L32.54,270.69L32.38,269.83L32.29,268.78L32.37,267.45L31.78,267.3L31.57,266.55L32.01,265.01L32.34,264.89L32.74,263.95L32.96,263.02L33.26,260.84L34.27,260.55L35.22,260.73L35.47,261.28L35.33,261.83L35.58,262.74L34.85,263.03L34.91,264.14L34.64,264.71L34.85,264.94L34.71,265.73L35.47,266L35.53,266.39L36.26,266.62L36.47,267.18L37.06,267.66L37.04,267.97L37.53,268.75L38.11,268.91ZM28.23,247.1L28.99,246.82L29.27,247.05L30.07,247.14L32.12,250.35L33.5,251.37L34.88,251.67L34.92,252.23L35.44,252.91L35.6,253.64L35.76,253.93L35.61,254.58L35.04,255.68L35.53,256.2L34.83,256.9L34.63,257.87L34.91,258.62L34.38,259.28L34.16,260.02L33.69,260.01L33.01,259.46L32.37,258.34L31.82,257.64L31.26,257.26L30.76,257.42L30.42,257.06L30.38,256.55L29.74,255.82L29.68,255.13L29.4,254.58L28.55,253.66L27.6,253.22L26.74,253.52L26.2,253.5L27.77,251.33L28.28,250.27L28.17,249.69L28.31,248.7L28.54,248.29Z" class="p2r-b5" data-region-id="395057" data-ratio="29.4"><title>San Francisco, CA — P2R 29.4 (2026-05)</title></path>
  <path d="M93.22,50.86L93.39,50.13L93.72,49.71L93.96,48.96L94.63,48.35L94.99,48.36L95.26,48.93L95.03,49.17L94.96,50.34L95.66,50.85L94.57,51.08L94.19,51.51L93.9,51.24L93.53,51.63L93.16,51.45ZM90.56,52.04L90.85,52.15L91.52,53.23L91.19,53.59ZM89.12,55.74L90.38,55.14L90.73,54.58L91.08,54.54L91.93,53.21L92.6,52.63L92.85,51.74L93.9,53.33L94.52,52.87L94.4,52.11L95.92,52.05L96.14,51.93L96.36,51.07L96.18,49.36L96.42,48.91L96.08,47.97L96.3,47.26L96.12,46.6L96.75,46.31L97.05,46.67L97.45,46.2L97.18,45.75L96.61,45.24L96.5,44.76L97.44,43.95L97.78,43.49L97.73,42.47L97.92,41.7L98.99,41.07L100.11,39L101.03,39L101.38,38.84L101.59,38.02L101.84,37.83L101.2,36.99L101.2,36.64L100.49,35.62L100.35,34.72L100.85,32.99L100.54,32.55L100.53,32.03L101.28,31.17L108.83,33.32L112.1,34.21L114.89,35.02L121.41,36.79L121.17,37.15L121.63,38.44L121.45,38.79L121.96,39.48L122.03,40.06L121.38,40.07L121.02,40.32L121.08,40.87L119.91,41.54L119.62,41.41L118.33,41.51L117.68,41.75L117.94,42.82L117,43.55L116.43,44.7L116.8,46.11L117.12,46.52L117.64,46.71L117.16,47.18L116.66,47.44L117,48.59L116.66,49.33L115.89,49.76L115.64,50.39L115.77,51.08L115.65,51.53L114.75,51.45L114.45,51.96L113.96,51.71L113.54,52.18L112.62,52.58L112.18,53.19L111.59,53.26L110.86,53.57L110.65,53.98L109.95,54.09L109.48,55.04L109,55.4L109.38,55.97L109.02,56.48L109.1,56.83L110.4,57.49L110.21,58.24L109.71,58.61L110.33,59.09L110.37,59.66L110.1,59.94L110.26,60.54L109.61,60.74L109.21,60.42L108.43,60.77L108.66,61.56L108.57,62.23L108.04,62.65L107.75,63.37L107.03,63.61L106.71,64.6L105.84,64.97L105.24,65.63L105.57,65.95L105.65,66.99L105.96,67.7L105.73,67.85L101.15,66.59L100.06,67.15L99.72,67.45L99.14,67.29L98.31,66.8L98.06,66.4L97.69,66.51L97.22,66.22L96.93,66.39L96.11,65.93L94.68,65.45L94.36,65.17L93.92,64.82L93.38,64.8L92.91,63.99L93.02,63.27L92.34,62.68L91.18,62.16L90.68,61.68L90.84,60.74L90.01,59.78L90.06,58.94L89.49,58.99L89.18,58.67L89.42,58.24L88.9,57.69L89,57.06L88.76,56.17ZM89.28,53.29L89.76,52.87L90.13,52.97L90.51,53.79L89.91,53.85ZM88.73,54.36L89.13,53.98L89.63,53.82L89.87,54.21L89.65,54.93L89.01,55.07ZM89.13,49.68L89.41,48.7L93.12,49.8L93.15,50.44L92.25,51.54L92.43,52.37L91.67,52.88L91.15,52.19L90.21,51.75L90.95,50.63L90.91,50.05L90.02,50.55L89.27,51.65L89.59,52.49L89.47,53.02L88.89,53.37L88.69,53.94L88.36,53.97L87.93,52.06L88.4,51.44L88.97,51.02L89.18,50.19Z" class="p2r-b5" data-region-id="395078" data-ratio="28.02"><title>Seattle, WA — P2R 28.02 (2026-05)</title></path>
  <path d="M805.08,269.32L807.61,268.61L807.84,267.27L808.27,266.46L808.15,266.11L808.49,264.72L808.43,263.93L808.67,263.47L808.8,262.63L808.93,261.93L809.83,259.72L810.04,259.68L811.18,257.9L811.36,256.82L811.87,256.79L812.22,257.72L812.17,258.11L812.89,258.15L813.33,258.88L813.09,259.16L813.32,259.7L813.23,260.16L813.78,260.34L814.62,260.1L814.6,259.66L814.9,258.23L814.8,257.41L815.03,256.69L814.77,255.99L814.81,255.3L815.01,254.98L815.14,253.12L815.77,252.71L816.2,251.6L815.97,251.34L816.41,250.53L816.58,250.5L820.69,249.68L820.36,250.33L820.59,250.68L820.17,251.07L820.12,251.62L819.76,252.39L820.64,252.45L821.08,252.8L821.61,252.79L823.58,254.43L823.57,255.18L823.23,256.2L823.25,257.27L822.91,258.16L823.32,258.66L823.92,259.03L824.19,259.54L825.06,259.55L825.79,259.92L826.54,260.49L826.94,261.37L827.37,261.4L827.92,262.01L829.04,261.85L829.86,262.17L830.19,262.48L830.2,262.97L830.71,263.03L830.97,263.35L831.8,263.48L831.92,263.83L832.88,264.41L833.27,265.71L833.73,266.1L833.74,266.76L833.56,267.19L833.66,268.01L833.43,268.29L833.54,269.02L834.18,269.66L834.07,270.55L834.63,271.6L834.57,272.2L835.02,272.53L835.04,273.41L835.59,274.54L835.53,275.18L834.85,275.11L833.75,275.34L833.31,277.16L832.64,278.35L833.2,279.05L832.92,279.65L833.31,279.94L833.79,280.82L833.67,281.27L832.49,280.76L832.16,280.76L831.93,280.06L831.2,279.76L830.81,279.35L830.6,278.65L829.88,277.6L829.46,277.71L828.76,278.71L828.2,278.76L828.04,279.23L826.98,280.19L826.13,279.83L825.73,279.18L825.8,278.79L825.27,277.68L825.31,276.98L825.58,275.99L825.86,275.86L826.5,274.52L826.87,274.47L827.42,273.73L826.57,273.8L825.9,274.38L825.4,273.83L825.15,274.46L824.99,275.45L825.21,275.85L824.93,276.23L824.92,276.73L824.62,277.46L824.54,278.72L825.01,279.7L825.64,280.72L825.07,280.92L824.95,281.93L825,283.16L824.66,283.3L823.92,284.8L821.31,289.66L821.06,289.98L820.22,289.75L819.74,289.68L818.99,289.06L818.4,288.91L817.23,288.16L816.08,288.2L815.22,288.11L815.62,287.26L816.38,285.99L816.49,285.62L817.28,284.44L817.28,284.25L818.14,282.78L818.4,281.87L817.08,281.38L816.86,281.79L816.14,281.81L814.74,282.08L814.56,282.54L813.74,283.09L813.42,283.11L813.11,283.57L812.51,284.01L811.85,284.3L811.87,283.76L811.34,283.41L811.25,282.75L811.41,282.21L810.69,281.49L806.28,277.98L806.56,277.35L806.46,276.64L806.07,276.25L806.14,275.42L806.64,274.84L806.46,274.38L804.47,273.75L805.28,272.25L805.17,272.04L805.59,270.72L804.96,270.65L805.15,269.89Z" class="p2r-b4" data-region-id="395209" data-ratio="20.11"><title>Washington, DC — P2R 20.11 (2026-05)</title></path>
  <path d="M77.19,374.28L78.24,374.65L78.76,375.22L79.25,375.51L79.81,376.09L80.2,376.23L80.88,376.79L81.8,378.77L81.76,379.35L81.33,379.51L80.53,378.82L79.31,378.55L78.91,378.29L78.64,377.64L78.96,376.82L78.97,376.1L78.61,375.77L77.7,375.46ZM74.68,384.15L75.24,384.26L75.55,385.4L76.34,387.11L77.98,389.51L76.71,390.09L76.07,389.02L75.63,388.61L75.66,388.01L75.19,387.12L75.21,386.3L74.91,385.6L74.88,384.69ZM79.29,343.96L79.92,343.43L85.43,344.77L92.21,346.33L99.34,347.96L101.27,348.41L99.9,354.31L100.03,354.34L99.48,356.71L98.89,360.4L97.64,363.09L95.86,366.03L95.3,365.78L94.42,366.7L94.47,367.23L95.35,368.47L96.17,369.41L97.39,372.25L98.16,372.69L97.95,373.76L98.99,374.15L99.87,375.43L97.48,377.78L97.33,378.43L97.16,379.16L96.57,379.4L95.83,379.28L95.16,380.67L94.86,379.8L93.98,378.66L93.35,378.56L93.27,378L92.51,376.44L92.01,376.12L91.15,374.93L90.22,374.38L90.05,374.04L89.13,373.02L87.93,370.93L86.95,370.02L86.43,369.78L85.99,370.42L85.39,370.09L84.79,370.51L84.17,370.62L82.95,369.58L82.13,369.31L82.12,368.35L82.76,367.98L83,367.29L82.55,364.29L81.92,362.77L81.29,362.1L80.08,361.88L79.14,361.58L78.29,361.59L77.8,361.4L76.83,361.44L76.31,361.81L75.63,360.82L74.06,360.18L74.29,359.55L77.55,358.16L79.74,358.69L80.13,357.09L80.78,357.25L80.97,356.07L79.68,346.95Z" class="p2r-b5" data-region-id="753899" data-ratio="27.75"><title>Los Angeles, CA — P2R 27.75 (2026-05)</title></path>
</svg>
