<svg xmlns="http://www.w3.org/2000/svg" viewBox="0 0 975 610" role="img" aria-label="US metro price-to-rent choropleth" data-source="fixtures" data-snapshot-month="2026-05" data-joined-count="15">
  <style>path{stroke:#fff;stroke-width:.5}.p2r-b1{fill:#d9d9d9}.p2r-b2{fill:#bdbdbd}.p2r-b3{fill:#969696}.p2r-b4{fill:#636363}.p2r-b5{fill:#252525}</style>
  <path d="M-104,-4.4L1079,-4.4L1079,614.4L-104,614.4ZM696.01,403.83L696.94,407.22L698.61,413.17L700.77,421.04L703.46,419.77L706.11,418.24L707.55,418.09L708.2,424.06L708.49,426.08L708.77,426.13L710.27,425.96L711.6,426.33L714.04,426.03L715.14,425.05L714.97,424.38L714.62,424.06L715.15,422.47L718.75,422.1L718.72,421.9L719.29,422.03L719.2,421.12L719.55,420.9L719.15,417.5L719.62,417.67L721.5,417.43L721.43,416.89L722.98,416.69L726.05,416.32L726.65,416.36L727.1,416.79L727.4,417.76L732.33,416.2L731.82,411.15L731.77,410.24L734.35,409.23L736.36,408.5L736.05,407.15L734.76,406.01L734.14,404.8L733.36,403.94L732.56,403.47L732.19,402.48L731.66,401.77L731.24,401.48L730.62,401.35L729.77,400.93L729.55,400.2L728.64,400.21L728.41,399.75L730.13,398.19L729.45,396.76L729.04,396.6L727.63,396.51L726.46,396.6L725.88,396.49L725.07,396.06L725.01,395.77L724.45,395.22L723.61,395.97L719.82,394.84L720.14,394.22L721.08,394.08L721.33,393.27L721.69,392.97L721.53,392.34L722,392.03L721.08,390.74L720.65,389.8L720.8,389.28L720.69,388.69L721.43,388.14L721.36,387.73L722.17,387.63L722.91,386.88L722.89,386.7L722.79,386.09L722.37,385.71L722.18,384.23L721.9,383.79L722,381.81L720.44,381.57L719.7,382.24L719.59,383.13L719.08,383.36L718.94,384.05L718.29,383.88L717.76,383.94L717.25,383.75L716.69,384.19L716.24,385.29L715.05,385.57L715.13,386.23L714.52,386.28L713.78,386.03L713.05,386.95L710.62,387.2L707.84,387.56L708.23,390.65L706.74,390.82L706.78,391.21L703.8,391.56L702.85,391.61L702.76,391.96L701.78,391.89L701.91,392.91L701.58,392.95L701.92,396L701.53,396.02L701.8,398.7L701.83,399L703.83,398.77L704.05,398.99L703.44,401.85L702.12,401.96L702.25,403.07L699.22,403.37L699.23,403.53ZM-65,461L209.3,461L209.3,609.2L-65,609.2ZM209.3,520.8L338,520.8L338,609.2L209.3,609.2Z" class="p2r-b3" data-region-id="394347" data-ratio="17.34"><title>Atlanta, GA — P2R 17.34 (2026-05)</title></path>
  <path d="M-104,-4.4L1079,-4.4L1079,614.4L-104,614.4ZM893.14,162.9L894,163.52L894.42,164.29L895.49,163.87L897.46,164.11L897.71,165.98L898.44,165.93L898.53,165.22L899.88,165.1L900.15,165.57L899.95,166.71L900.27,166.82L900.32,168.08L900.13,168.72L899.6,169.73L900.49,170.42L900.95,169.94L901.96,169.58L902.09,170.02L901.99,170.92L901.5,171.29L900.76,171.55L900.76,172.55L901.19,172.95L902.46,172.78L902.75,173.23L903.06,173.17L903.25,173.94L902.98,174.35L903.61,176.54L905.49,176L905.69,176.75L905.96,176.68L909.9,173L911.19,175.8L912.27,176.41L913.01,177.73L912.25,178.97L912.71,179.25L912.65,179.76L914.27,179.04L914.76,179.69L915.04,179.57L916.39,181.93L916.52,182.29L917.08,182.22L916.9,181.48L917.46,181.5L917.74,180.73L918.17,180.09L917.8,179.7L917.89,179.37L919.05,179.59L919.23,179.43L919.41,178.67L919.12,178.39L920.08,177.56L920.39,176.91L920.21,176.65L920.27,175.8L919.58,174.4L918.78,174.05L918.45,174.35L917.77,174.35L916.7,173.74L916.6,173.16L917.05,173.05L916.89,172.51L917.24,172.2L917.04,171.23L916.05,170.46L915.19,169.47L915.17,169.02L914.23,168.54L914.09,168.23L912.57,168.21L912.14,167.9L912.17,168.84L911.47,168.42L910.97,169.19L909.35,168.32L909.09,167.85L909.57,167.15L909.55,166.57L909.91,166.16L909.49,165.76L909.67,164.88L910.24,164.13L910.73,164.15L910.84,163.69L911.28,163.21L910.86,162.74L910.75,162.15L912.02,161.48L912.51,160.96L913.01,160.88L913.35,160.31L914.03,159.96L913.99,159.57L914.3,159.06L914.26,158.47L913.85,158.54L913.49,157.98L912.81,158.97L912.11,158.9L911.24,158.56L911.19,158.11L910.23,156.69L909.61,155.22L909.39,153.96L909.46,153.16L909.65,152.71L910.18,150.13L909.55,149.97L907.82,149.18L907.59,148.77L907.58,148.11L907.3,146.7L906.08,146.23L905.26,145.32L904.82,145.03L904.31,145.01L903.85,144.38L903.58,143.55L903.84,142.91L903.42,141.89L903.47,141.1L903.22,140.65L902.58,142.19L902.08,141.22L901.62,141.41L901.06,142.03L900.4,140.65L900.05,141.55L899.75,142.19L901.2,145.58L900.39,147.45L900.27,147.7L899.84,150.5L899.55,151.99L899.35,153.53L899.52,154.2L900.2,155.67L899.04,156.19L900.04,158.4L900.68,158.25L901.25,158.7L901.56,159.25L903.11,159.22L903.41,159.44L902.92,160.66L895.61,162.35ZM-65,461L209.3,461L209.3,609.2L-65,609.2ZM209.3,520.8L338,520.8L338,609.2L209.3,609.2Z" class="p2r-b3" data-region-id="394404" data-ratio="19.25"><title>Boston, MA — P2R 19.25 (2026-05)</title></path>
  <path d="M-104,-4.4L1079,-4.4L1079,614.4L-104,614.4ZM615.85,221.65L615.97,223.64L616.28,227.58L616.54,231.36L616.76,233.59L618.79,233.37L622.41,233.09L623.01,239.03L623.29,241.35L623.61,245L625.55,244.82L629.24,244.41L629.43,244.39L629.22,242.39L633.12,241.98L632.92,240.02L641.12,239.17L641.72,245.73L642.28,251.95L649.54,251.29L649.29,248.99L651.22,248.81L651.05,247.12L651.99,247.03L651.3,239.63L650.65,232.82L650.22,228.87L648.71,229.81L647.57,230.45L646.6,230.77L645.58,231.28L644.45,231.45L643.09,231.37L642.34,231.12L642.16,230.77L642.33,230.29L642.03,230.09L641.2,230.51L640.48,229.95L640.13,228.93L639.37,228.28L638.63,226.84L637.89,224.12L637.26,222.73L636.95,221.68L635.96,220.74L634.69,218.79L634.12,217.48L633.96,216.76L634.01,215.54L634.32,214.71L634.13,212.37L628.94,212.74L625.8,213.02L620.26,213.46L619.14,213.57L619.44,217.35L619.75,221.31ZM-65,461L209.3,461L209.3,609.2L-65,609.2ZM209.3,520.8L338,520.8L338,609.2L209.3,609.2Z" class="p2r-b2" data-region-id="394463" data-ratio="13.02"><title>Chicago, IL — P2R 13.02 (2026-05)</title></path>
  <path d="M-104,-4.4L1079,-4.4L1079,614.4L-104,614.4ZM459.15,435.01L458.91,440.81L458.72,445.14L461.53,445.24L467.27,445.4L467.2,450.78L467.18,453.42L468.06,454.08L468.07,454.65L468.93,455L469.13,454.41L469.82,454.15L469.82,453.95L475.86,452.48L477.28,452.15L480.01,457.04L480.88,456.55L486.08,453.56L490.72,450.8L489.84,450.73L489.42,450.11L496.57,450.15L496.58,446.75L496.56,439.2L498.82,439.02L498.27,438.4L498.44,438.1L499.06,435.96L500.61,435.95L500.62,430.5L500.67,426.13L493.28,427.32L490.79,427.7L490.78,426.4L485.72,426.3L482.2,426.16L482.2,426L480.27,425.91L475.08,425.65L470.06,425.37L461.96,425.22L461.85,429.72L461.68,435.11ZM-65,461L209.3,461L209.3,609.2L-65,609.2ZM209.3,520.8L338,520.8L338,609.2L209.3,609.2Z" class="p2r-b3" data-region-id="394514" data-ratio="18.21"><title>Dallas, TX — P2R 18.21 (2026-05)</title></path>
  <path d="M-104,-4.4L1079,-4.4L1079,614.4L-104,614.4ZM693.56,199.56L693.9,201.31L694.49,204.81L694.84,207.5L695.01,207.48L698.08,207.11L701.37,206.6L704.53,206.02L705.03,208.93L705.79,213.9L707.74,213.59L707.72,213.46L709.81,213.18L711.33,214.17L711.74,214.07L711.58,213.33L712.04,212.97L712.52,212.9L712.63,212.08L712.23,210.98L712.17,209.54L712.44,208.37L712.95,207.61L713.54,207.26L714.59,206.86L715.1,206.28L715.58,205.38L715.75,204.04L715.41,203.58L715.43,202.5L715.79,201.59L716.16,201.31L716.8,201.22L716.51,200.48L716.02,200.32L716.05,199.71L717.75,198.35L718.88,198.51L718.24,199.82L718.25,200.21L718.77,200.48L718.79,200.99L719.76,201.34L720.91,199.84L721.06,199.1L720.95,198.47L721.22,197.21L721.34,196.2L720.94,195.15L721.03,193.98L720.9,193.36L721,192.42L721.54,191.19L721.18,190.32L719.95,188.54L719.45,187.07L717.19,187.5L711.46,188.53L710.99,185.58L709.06,185.87L708.91,184.9L705.11,185.53L705.41,187.49L703.64,187.77L703.67,188L704.22,191.91L704.84,195.83L700.99,196.45L701.3,198.43L697.41,198.98ZM-65,461L209.3,461L209.3,609.2L-65,609.2ZM209.3,520.8L338,520.8L338,609.2L209.3,609.2Z" class="p2r-b2" data-region-id="394532" data-ratio="14.95"><title>Detroit, MI — P2R 14.95 (2026-05)</title></path>
  <path d="M-104,-4.4L1079,-4.4L1079,614.4L-104,614.4ZM521.31,519.03L521.81,519.3L522.14,518.84L521.54,518.39ZM-65,461L209.3,461L209.3,609.2L-65,609.2ZM209.3,520.8L338,520.8L338,609.2L209.3,609.2ZM-104,-4.4L1079,-4.4L1079,614.4L-104,614.4ZM518.16,510.9L518.55,511.98L518.9,511.59L518.65,511.05ZM-65,461L209.3,461L209.3,609.2L-65,609.2ZM209.3,520.8L338,520.8L338,609.2L209.3,609.2ZM-104,-4.4L1079,-4.4L1079,614.4L-104,614.4ZM515.45,524.4L516.12,523.99L517.28,523.09L519.97,521.2L521.88,519.93L523.21,518.85L522.42,518.72L521.81,519.39L521.36,519.35L520.31,519.81L519.98,520.25L519.39,520.66L518.93,521.39L518.59,521.44L518.04,522.08L517.47,522.43L517.06,522.93L515.94,523.74ZM-65,461L209.3,461L209.3,609.2L-65,609.2ZM209.3,520.8L338,520.8L338,609.2L209.3,609.2ZM-104,-4.4L1079,-4.4L1079,614.4L-104,614.4ZM496.2,498.72L495.18,498.85L494.91,499.13L494.99,499.81L494.28,500.76L495.08,501.9L494.82,502.62L493.53,502.1L492.94,502.1L492.41,501.64L487.84,502.33L486.53,502.32L485.82,502.79L487.49,505.91L488.49,506.83L489.47,507.26L489.9,507.79L490.57,507.79L491.51,508.04L491.82,508.68L491.88,509.36L492.31,510.02L492.7,510.25L492.56,510.66L492.9,511.34L494.1,511.64L494.57,512.14L495.22,512.46L495.73,512.39L496.17,512.82L496.8,513.09L496.84,513.62L497.21,514.12L496.94,514.39L497.09,514.96L496.84,515.41L497.29,516.41L497.86,516.79L498.18,516.68L498.56,517.2L498.67,517.86L499.23,518.4L498.99,518.88L500.14,519.47L500.04,519.74L500.4,520.47L501.15,520.65L500.52,521.3L501.09,521.87L501.23,522.51L500.98,523.07L501.2,523.34L501.16,524.27L501.87,524.45L502.15,524.91L502.69,525.15L502.45,525.5L502.43,526.58L502.69,527.26L504,527.19L504.88,527.6L505.14,528.68L506.4,529.67L506.62,530.35L507.84,530.44L509.23,529.66L510.28,529.43L511.13,528.56L512.04,527.9L512.89,526.94L515.41,524.83L514.55,523.71L514.87,522.39L514.73,522.03L515.54,521.91L515.92,522.42L517.14,521.64L518.4,519.99L519.06,519.26L519.66,519.39L519.93,519.02L519.63,518.69L520.45,518.07L520.03,517.62L519.92,516.55L518.73,515.79L519.51,515.15L518.22,514.82L517.46,514.17L517.4,513.83L518.08,512.78L517.44,512.09L517.71,511.33L518.08,511.06L517.46,510.41L518.15,510.33L518.84,510.57L519.31,511.5L520.23,511.17L520.65,510.03L521.35,509.18L522.99,508.43L523.69,509.13L523.85,510.62L523.63,511.85L522.69,513.82L522.44,514.48L525.63,513.62L526.41,513.29L526.73,513.33L527.19,514.03L528.19,513.65L527.6,514.72L526.41,514.26L525.76,514.82L525.54,515.37L524.89,515.63L524.16,515.61L523.63,516.46L522.4,517.52L522.17,518.18L523.08,518.01L523.57,517.21L524.09,516.7L525.05,516.08L527.84,514.7L530.5,513.47L530.52,513.2L530.29,506.12L528.64,506.15L528.5,501.02L525.54,501.08L522.74,492.53L521.92,492.56L520.24,492.47L520.12,492.09L520.78,491.62L520.58,491.29L519.96,491.29L519.27,490.94L518.69,491.01L518.17,490.61L516.95,490.6L517.33,489.96L517.01,488.96L516.42,488.28L515.62,488.72L515.15,488.36L514.62,487.46L514.65,486.84L514.92,486.5L514.92,485.98L513.41,484.85L512.96,484.65L512.72,484.06L512.95,483.61L512.54,483.15L511.36,483.37L511.34,483.94L511.09,484.23L510.88,487.01L510.76,489.58L510.47,492.22L505.84,492.25L501.33,489.51L501.57,492.4L501.85,496.15L501.86,498.24L499.53,498.45L496.28,498.63ZM-65,461L209.3,461L209.3,609.2L-65,609.2ZM209.3,520.8L338,520.8L338,609.2L209.3,609.2Z" class="p2r-b2" data-region-id="394692" data-ratio="15.67"><title>Houston, TX — P2R 15.67 (2026-05)</title></path>
  <path d="M-104,-4.4L1079,-4.4L1079,614.4L-104,614.4ZM822.86,581.67L823.24,581.69L823.55,580.5L823.06,580.74ZM-65,461L209.3,461L209.3,609.2L-65,609.2ZM209.3,520.8L338,520.8L338,609.2L209.3,609.2ZM-104,-4.4L1079,-4.4L1079,614.4L-104,614.4ZM804.33,548.25L805.58,556.04L806.64,561.87L806.95,563.8L807.28,565.71L808.02,569.55L808.71,573.86L810.28,583.64L810.51,583.6L810.94,586.28L811.25,587.73L811.97,587.98L812.49,587.85L814.1,587.65L814.36,587.79L814.9,587.21L816.79,586.06L817.84,585.79L818.04,585.58L818.73,585.81L818.52,585.43L819.56,584.85L820.04,584.95L820.41,584.51L820.32,583.98L820.67,583.67L820.66,583.26L820.7,582.87L821.24,582.57L821.77,581.55L821.31,581.08L821.2,580.17L820.8,579.55L820.69,578.84L820.77,578.19L821.08,577.96L821.18,577.12L820.94,576.43L821.34,576L821.89,574.13L821.93,573.47L822.45,572.95L823.06,572.84L823.65,573.27L823.94,572.15L823.99,571.16L823.65,569.28L823.42,567.29L823.2,564.98L823.08,561.56L823.15,561.13L822.86,557.21L822.84,554.66L822.74,553.35L822.38,550.85L822.11,549.73L822.12,549.04L821.58,547.69L820.48,545.32L819.23,545.53L819.28,545.84L814.4,546.63L809.72,547.4ZM-65,461L209.3,461L209.3,609.2L-65,609.2ZM209.3,520.8L338,520.8L338,609.2L209.3,609.2Z" class="p2r-b2" data-region-id="394856" data-ratio="14.72"><title>Miami, FL — P2R 14.72 (2026-05)</title></path>
  <path d="M-104,-4.4L1079,-4.4L1079,614.4L-104,614.4ZM899.23,195.78L899.81,195.59L900.32,194.89L899.39,195.18ZM-65,461L209.3,461L209.3,609.2L-65,609.2ZM209.3,520.8L338,520.8L338,609.2L209.3,609.2ZM-104,-4.4L1079,-4.4L1079,614.4L-104,614.4ZM866.63,221.28L866.84,221.51L867.64,221L867.77,220.75L868.8,219.83L869.51,218.35L868.85,217.47L867.66,218.01L867.28,217.91L866.91,218.32L867.16,218.95L867.11,220.01L866.58,220.47L866.78,221.01ZM-65,461L209.3,461L209.3,609.2L-65,609.2ZM209.3,520.8L338,520.8L338,609.2L209.3,609.2ZM-104,-4.4L1079,-4.4L1079,614.4L-104,614.4ZM850.64,222.95L851.02,223.49L851.6,223.11L852.26,223.15L852.91,223.61L853.31,224.93L853.31,225.56L853.69,226.35L854.34,226.55L854.78,226.27L855.4,226.5L856.01,227.61L857.44,227.17L857.05,226.53L858.15,226.11L857.89,225.42L858.86,225.04L859.54,226.03L860.6,225.42L861.28,225.57L861.24,226.47L861.41,226.69L862.17,226.91L862.81,227.26L863.24,227.11L864.07,227.37L864.24,228.06L863.34,228.88L863.16,229.53L862.68,229.92L862.99,230.81L864.39,232.68L865.12,233.78L868.19,238.19L869.11,242.14L868.85,243.12L869.76,244.27L870.65,243.9L871.26,243.69L871.83,242.45L872.8,239.07L873.17,237.41L872.85,234.99L872.6,232.32L872.4,228.98L872.43,226.27L872.38,224.85L872.17,223.6L871.83,222.46L870.56,222.45L868.92,221.99L868.01,222.53L866.75,222.26L866.45,221.79L866.67,220.92L866.44,220.36L867.03,219.84L866.85,218.45L867.09,217.9L867.71,217.12L867.79,217.81L868.68,217.37L868.61,217.08L869.51,215.69L869.95,216.88L869.58,217.81L869.87,218.24L870.51,218.42L870.71,218.84L872.16,218.12L872.54,218.48L871.65,219.02L871.74,219.23L873.29,218.09L874.2,217.54L875.4,217.42L876.47,217.19L876.94,216.96L877.64,217.03L880.04,215.67L881.02,214.96L881.43,214.82L881.82,215L882.55,214.8L883.39,214.38L885.28,213.26L886.36,212.5L887.67,211.4L889.96,209.67L891.55,208.64L894.43,206.64L895.52,205.8L899.57,202.28L900.81,201.3L901.81,200.41L903.04,199.5L903.24,199L902.37,198.87L901.54,199.44L901.72,199.94L901.13,200.11L900.87,200.72L900.35,200.88L899.77,201.78L899.38,201.67L898.9,201.23L898.81,200.87L898.3,200.7L897.96,201.26L897.07,201.2L896.54,201.53L896.23,200.59L895.57,200.54L895.09,200.17L895.41,199.38L896.01,199.65L896.42,198.82L895.8,198.83L895.2,199.46L894.67,199.57L894.21,200.72L893.48,201.15L893.15,202.03L892.54,202.47L891.67,203.68L890.92,204.24L889.75,204.63L888.74,205.19L887.74,205.32L886.45,205.83L885.75,205.91L884.1,206.34L883,206.33L882.56,206.69L882.78,207.51L881.57,208.35L880.37,208.22L879.15,208.33L878.58,207.92L878.53,208.5L879.41,208.45L879.37,208.93L878.52,209.14L877.94,208.55L877.11,208.49L877.02,208.98L877.22,209.67L877.14,210.13L876.54,210.25L876.27,209.57L875.93,209.48L874.81,210.2L874.68,210.68L874.91,211.19L873.73,211.09L873.47,211.27L873.66,211.84L873.21,212.06L873.18,213.2L872.26,212.36L872.11,211.88L872.46,211.7L872.54,211.02L872.79,210.31L873.81,209.19L874.09,208.68L874,208.23L873.95,207.7L872.27,206.01L875.71,202.55L874.15,200.99L873.25,195.75L872.44,195.97L870.8,196.67L866.83,198.2L866.32,199.47L867.1,200.37L867.12,201.4L866.92,202.01L863.7,207.04L861.61,206.38L859.46,205.56L855,204.02L854.1,204.49L853.89,205.03L853.22,205.91L853.05,206.34L852.81,207.55L852.98,207.67L852.8,208.65L852.34,209.76L851.52,210.65L851.43,211.05L851.84,210.91L856.04,214.25L855.58,214.94L855.73,215.42L855.47,215.95L855.24,216.94L854.44,217.66L853.7,219.5L853.01,220L852.16,220.92L851.77,221.57L851.21,221.95ZM-65,461L209.3,461L209.3,609.2L-65,609.2ZM209.3,520.8L338,520.8L338,609.2L209.3,609.2Z" class="p2r-b3" data-region-id="394913" data-ratio="17.31"><title>New York, NY — P2R 17.31 (2026-05)</title></path>
  <path d="M-104,-4.4L1079,-4.4L1079,614.4L-104,614.4ZM837.35,246.23L837.85,246.95L838.88,247.57L839.5,248.3L840.85,249.63L841.46,249.29L842.02,249.34L842.06,249L842.58,248.96L842.52,251.1L843.08,251.05L842.94,251.74L842.25,252.64L842.37,253.03L842.98,252.9L844.55,253.03L845.45,252.84L845.9,252.37L846.89,252.23L847.4,254.02L848.15,253.8L849.23,253.76L849.71,253.21L850.46,252.97L850.59,252.1L851.27,251.55L850.57,250.51L849.9,250.14L849.35,249.33L849.52,248.4L849.45,247.36L848.45,246.76L848.31,246.34L848.61,245.46L849,245.23L849.59,243.62L849.94,242L850.21,242.41L850.13,243.65L849.74,244.13L849.74,244.79L849.03,246.07L849.25,246.37L850.24,246.83L850.04,247.72L850.36,248.66L850.11,248.74L850.4,249.52L851.71,249.75L852.28,250.49L852.78,250.73L852.63,250.11L852.58,249.09L853.27,248.98L853.54,248.12L853.94,248.01L854.97,246.21L858.08,247.91L858.13,247.25L857.93,246.91L857.81,245.91L857.89,245.33L859.46,246.24L862.58,240.49L863.79,241.11L864.27,241.82L864.39,242.4L865.22,242.4L865.96,242.82L866.33,242.73L866.89,243.26L867.28,243.17L867.89,243.48L868.85,243.12L869.11,242.14L868.19,238.19L865.12,233.78L864.39,232.68L862.99,230.81L862.38,230.83L860.95,230.22L860.8,230.96L859.93,230.36L859.52,229.8L858.16,229.26L857.51,228.37L856.01,227.61L855.4,226.5L854.78,226.27L854.34,226.55L853.69,226.35L853.31,225.56L853.31,224.93L852.91,223.61L852.26,223.15L851.6,223.11L851.02,223.49L850.64,222.95L850.44,222.59L849.56,223.42L847.48,226.08L846.59,227.92L845.68,227.44L843.9,232.63L843.23,233.36L841.43,235.62L840.39,236.5L840.85,238.09L840.27,240.2L840.59,240.58L840.38,240.88L840.69,241.52L840.31,242.49L840.37,243.01L839.97,244.76L839.47,245.34L839.55,245.7ZM-65,461L209.3,461L209.3,609.2L-65,609.2ZM209.3,520.8L338,520.8L338,609.2L209.3,609.2Z" class="p2r-b3" data-region-id="394974" data-ratio="17"><title>Philadelphia, PA — P2R 17 (2026-05)</title></path>
  <path d="M-104,-4.4L1079,-4.4L1079,614.4L-104,614.4ZM176.22,383.23L174.69,391.34L173.6,397.22L172.93,401.09L171.1,410.92L170.01,416.8L175.74,417.85L181.41,418.87L185.25,419.5L191.19,420.53L195.86,421.33L203.1,422.54L203.08,422.68L210.8,423.91L210.85,423.71L216.72,424.65L216.73,424.58L224.12,425.73L224.17,425.74L225.69,415.97L226.53,410.37L226.22,410.6L225.45,410.41L224.11,411.15L223.63,411.33L222.89,411.03L222.36,411.6L221.96,411.61L221.79,412.11L220.92,412.39L221.03,412.8L220.71,413.35L219.56,414.14L217.44,407.68L217.25,405.52L216.42,402.22L215.16,397.42L213.96,398.26L213.37,398.52L212.92,398.33L212.12,396.81L211.9,396.66L211.89,395.89L211.58,395.38L211.09,395.09L211.16,394.47L211.64,393.47L211.27,392.94L211.49,392.54L211.13,391.97L211.39,391.22L210.67,390.74L210.66,390.11L211.11,389.67L210.56,389.07L210.03,389.12L205.77,388.42L197.88,385.97L197.83,386.66L197.14,387.19L196.06,388.14L196.08,388.72L195.25,389.11L195.19,389.36L187.04,385.19L179.73,383.87ZM-65,461L209.3,461L209.3,609.2L-65,609.2ZM209.3,520.8L338,520.8L338,609.2L209.3,609.2Z" class="p2r-b4" data-region-id="394976" data-ratio="21.45"><title>Phoenix, AZ — P2R 21.45 (2026-05)</title></path>
  <path d="M-104,-4.4L1079,-4.4L1079,614.4L-104,614.4ZM101.27,348.41L99.9,354.31L100.03,354.34L99.48,356.71L98.89,360.4L97.64,363.09L95.86,366.03L95.3,365.78L94.42,366.7L94.47,367.23L95.35,368.47L96.17,369.41L97.39,372.25L98.16,372.69L97.95,373.76L98.99,374.15L99.87,375.43L97.48,377.78L97.33,378.43L100.01,379.04L99.81,379.33L101.96,380.8L101.89,381.18L103.82,381.62L105.72,382.17L108.91,382.88L115.14,384.26L121.03,385.49L123.09,386.01L130.58,387.57L134.45,388.38L138.64,389.2L141.91,389.89L146.2,390.71L146.22,390.62L149.98,391.37L150.15,390.87L150.91,390.04L151.56,389.75L151.67,389.42L152.38,389.1L152.26,388.17L152.7,387.79L152.66,386.92L152.99,386.1L153.56,385.95L153.64,385.46L153.43,385.07L153.67,384.32L153.49,383.19L153.68,383L153.61,382.28L154.21,381.89L153.91,381.44L154.21,381.1L153.85,380.7L154.22,380.05L154.65,380L156.06,378.85L156.41,377.43L156.84,377.02L157.78,376.95L158.19,376.68L158.63,376.7L159.47,376.07L160.09,376.12L160.72,375.59L162.01,374.72L162.72,374.56L162.77,373.64L162.49,373.23L162.26,372.47L161.44,371.91L160.9,370.99L160.5,370.82L160.34,370.28L159.68,369.59L159.09,369.57L158.91,369.27L159.29,368.21L159.33,367.68L159.07,366.7L158.63,365.98L158.65,364.4L158.45,363.22L157.77,362.55L157.25,361.75L157.05,361.07L156.94,360.07L156.28,359.24L156.26,358.77L156.65,357.47L156.85,356.18L154.61,352.82L150.35,346.45L147.68,342.4L144.4,337.51L142.32,334.34L140.75,334.03L140.68,334.37L130.93,332.31L119.53,329.75L111.61,327.96L106.89,326.83L106.44,328.77L106.12,328.69L105.97,329.34L106.6,329.49L106.45,330.13L106.14,330.08L105.76,332.04L105.26,334.23L105.11,334.55L104.65,336.77L103.34,342.43L103.3,342.42L101.89,348.58ZM-65,461L209.3,461L209.3,609.2L-65,609.2ZM209.3,520.8L338,520.8L338,609.2L209.3,609.2Z" class="p2r-b3" data-region-id="395025" data-ratio="19.36"><title>Riverside, CA — P2R 19.36 (2026-05)</title></path>
  <path d="M-104,-4.4L1079,-4.4L1079,614.4L-104,614.4ZM39.18,255.88L39.2,256.24L38.34,256.81L37.74,256.85L37.16,256.54L36.99,257.21L36.13,257.32L35.99,258.02L36.54,258.82L37.11,258.86L37.47,259.37L37.07,259.71L37.36,260.25L37.26,260.86L36.93,260.79L36.48,261.42L36.61,261.82L37.69,262.79L37.39,263.35L37.86,264.1L38.53,264.81L38.57,265.66L38.33,266.88L38.56,268.35L38.44,269L39.31,269.37L39.37,270.15L40.17,270.28L40.41,270.48L41.18,270.65L41.31,270.9L42.19,270.72L42.53,270.51L45.87,271.48L49.25,272.44L49.27,272.44L49.03,271.9L49.03,271.36L48.67,271.26L48.18,270.69L49.84,264.66L50.36,264.1L49.8,263.32L50.51,262.3L50.58,261.45L50.42,261.02L50.61,260.41L51.04,260.22L50.75,259.5L51.14,258.41L49.75,257.98L49.33,258.2L49.22,258.67L48.03,259.15L47.11,259.11L46.64,258.88L46.16,257.7L45.85,257.97L45.21,257.93L44.11,257.1L43.29,257.06L42.75,256.84L41.53,257.11L40.77,256.88L40.6,256.42L39.64,255.91ZM-65,461L209.3,461L209.3,609.2L-65,609.2ZM209.3,520.8L338,520.8L338,609.2L209.3,609.2ZM-104,-4.4L1079,-4.4L1079,614.4L-104,614.4ZM38.12,269.72L38.11,268.91L37.53,268.75L37.04,267.97L37.06,267.66L36.47,267.18L36.26,266.62L35.53,266.39L35.47,266L34.71,265.73L34.85,264.94L34.64,264.71L34.91,264.14L34.85,263.03L35.58,262.74L35.33,261.83L35.47,261.28L35.22,260.73L34.27,260.55L33.26,260.84L32.96,263.02L32.74,263.95L32.34,264.89L32.01,265.01L31.57,266.55L31.78,267.3L32.37,267.45L32.29,268.78L32.38,269.83L32.54,270.69L31.77,272.68L31.56,273.03L31.45,274.26L31.96,274.95L31.92,275.49L32.23,275.91L32.12,276.24L32.82,276.77L32.75,275.77L32.89,274.89L34.2,275.19L34.36,274.63L35.91,275.07L36.37,273.51L35.97,271.64L36.31,271.16L36.6,270.13L37.18,269.77L37.82,269.95ZM-65,461L209.3,461L209.3,609.2L-65,609.2ZM209.3,520.8L338,520.8L338,609.2L209.3,609.2ZM-104,-4.4L1079,-4.4L1079,614.4L-104,614.4ZM28.23,247.1L28.54,248.29L28.31,248.7L28.17,249.69L28.28,250.27L27.77,251.33L26.2,253.5L26.74,253.52L27.6,253.22L28.55,253.66L29.4,254.58L29.68,255.13L29.74,255.82L30.38,256.55L30.42,257.06L30.76,257.42L31.26,257.26L31.82,257.64L32.37,258.34L33.01,259.46L33.69,260.01L34.16,260.02L34.38,259.28L34.91,258.62L34.63,257.87L34.83,256.9L35.53,256.2L35.04,255.68L35.61,254.58L35.76,253.93L35.6,253.64L35.44,252.91L34.92,252.23L34.88,251.67L33.5,251.37L32.12,250.35L30.07,247.14L29.27,247.05L28.99,246.82ZM-65,461L209.3,461L209.3,609.2L-65,609.2ZM209.3,520.8L338,520.8L338,609.2L209.3,609.2Z" class="p2r-b5" data-region-id="395057" data-ratio="29.4"><title>San Francisco, CA — P2R 29.4 (2026-05)</title></path>
  <path d="M-104,-4.4L1079,-4.4L1079,614.4L-104,614.4ZM93.22,50.86L93.16,51.45L93.53,51.63L93.9,51.24L94.19,51.51L94.57,51.08L95.66,50.85L94.96,50.34L95.03,49.17L95.26,48.93L94.99,48.36L94.63,48.35L93.96,48.96L93.72,49.71L93.39,50.13ZM-65,461L209.3,461L209.3,609.2L-65,609.2ZM209.3,520.8L338,520.8L338,609.2L209.3,609.2ZM-104,-4.4L1079,-4.4L1079,614.4L-104,614.4ZM90.56,52.04L91.19,53.59L91.52,53.23L90.85,52.15ZM-65,461L209.3,461L209.3,609.2L-65,609.2ZM209.3,520.8L338,520.8L338,609.2L209.3,609.2ZM-104,-4.4L1079,-4.4L1079,614.4L-104,614.4ZM89.12,55.74L88.76,56.17L89,57.06L88.9,57.69L89.42,58.24L89.18,58.67L89.49,58.99L90.06,58.94L90.01,59.78L90.84,60.74L90.68,61.68L91.18,62.16L92.34,62.68L93.02,63.27L92.91,63.99L93.38,64.8L93.92,64.82L94.36,65.17L94.68,65.45L96.11,65.93L96.93,66.39L97.22,66.22L97.69,66.51L98.06,66.4L98.31,66.8L99.14,67.29L99.72,67.45L100.06,67.15L101.15,66.59L105.73,67.85L105.96,67.7L105.65,66.99L105.57,65.95L105.24,65.63L105.84,64.97L106.71,64.6L107.03,63.61L107.75,63.37L108.04,62.65L108.57,62.23L108.66,61.56L108.43,60.77L109.21,60.42L109.61,60.74L110.26,60.54L110.1,59.94L110.37,59.66L110.33,59.09L109.71,58.61L110.21,58.24L110.4,57.49L109.1,56.83L109.02,56.48L109.38,55.97L109,55.4L109.48,55.04L109.95,54.09L110.65,53.98L110.86,53.57L111.59,53.26L112.18,53.19L112.62,52.58L113.54,52.18L113.96,51.71L114.45,51.96L114.75,51.45L115.65,51.53L115.77,51.08L115.64,50.39L115.89,49.76L116.66,49.33L117,48.59L116.66,47.44L117.16,47.18L117.64,46.71L117.12,46.52L116.8,46.11L116.43,44.7L117,43.55L117.94,42.82L117.68,41.75L118.33,41.51L119.62,41.41L119.91,41.54L121.08,40.87L121.02,40.32L121.38,40.07L122.03,40.06L121.96,39.48L121.45,38.79L121.63,38.44L121.17,37.15L121.41,36.79L114.89,35.02L112.1,34.21L108.83,33.32L101.28,31.17L100.53,32.03L100.54,32.55L100.85,32.99L100.35,34.72L100.49,35.62L101.2,36.64L101.2,36.99L101.84,37.83L101.59,38.02L101.38,38.84L101.03,39L100.11,39L98.99,41.07L97.92,41.7L97.73,42.47L97.78,43.49L97.44,43.95L96.5,44.76L96.61,45.24L97.18,45.75L97.45,46.2L97.05,46.67L96.75,46.31L96.12,46.6L96.3,47.26L96.08,47.97L96.42,48.91L96.18,49.36L96.36,51.07L96.14,51.93L95.92,52.05L94.4,52.11L94.52,52.87L93.9,53.33L92.85,51.74L92.6,52.63L91.93,53.21L91.08,54.54L90.73,54.58L90.38,55.14ZM-65,461L209.3,461L209.3,609.2L-65,609.2ZM209.3,520.8L338,520.8L338,609.2L209.3,609.2ZM-104,-4.4L1079,-4.4L1079,614.4L-104,614.4ZM89.28,53.29L89.91,53.85L90.51,53.79L90.13,52.97L89.76,52.87ZM-65,461L209.3,461L209.3,609.2L-65,609.2ZM209.3,520.8L338,520.8L338,609.2L209.3,609.2ZM-104,-4.4L1079,-4.4L1079,614.4L-104,614.4ZM88.73,54.36L89.01,55.07L89.65,54.93L89.87,54.21L89.63,53.82L89.13,53.98ZM-65,461L209.3,461L209.3,609.2L-65,609.2ZM209.3,520.8L338,520.8L338,609.2L209.3,609.2ZM-104,-4.4L1079,-4.4L1079,614.4L-104,614.4ZM89.13,49.68L89.18,50.19L88.97,51.02L88.4,51.44L87.93,52.06L88.36,53.97L88.69,53.94L88.89,53.37L89.47,53.02L89.59,52.49L89.27,51.65L90.02,50.55L90.91,50.05L90.95,50.63L90.21,51.75L91.15,52.19L91.67,52.88L92.43,52.37L92.25,51.54L93.15,50.44L93.12,49.8L89.41,48.7ZM-65,461L209.3,461L209.3,609.2L-65,609.2ZM209.3,520.8L338,520.8L338,609.2L209.3,609.2Z" class="p2r-b5" data-region-id="395078" data-ratio="28.02"><title>Seattle, WA — P2R 28.02 (2026-05)</title></path>
  <path d="M-104,-4.4L1079,-4.4L1079,614.4L-104,614.4ZM805.08,269.32L805.15,269.89L804.96,270.65L805.59,270.72L805.17,272.04L805.28,272.25L804.47,273.75L806.46,274.38L806.64,274.84L806.14,275.42L806.07,276.25L806.46,276.64L806.56,277.35L806.28,277.98L810.69,281.49L811.41,282.21L811.25,282.75L811.34,283.41L811.87,283.76L811.85,284.3L812.51,284.01L813.11,283.57L813.42,283.11L813.74,283.09L814.56,282.54L814.74,282.08L816.14,281.81L816.86,281.79L817.08,281.38L818.4,281.87L818.14,282.78L817.28,284.25L817.28,284.44L816.49,285.62L816.38,285.99L815.62,287.26L815.22,288.11L816.08,288.2L817.23,288.16L818.4,288.91L818.99,289.06L819.74,289.68L820.22,289.75L821.06,289.98L821.31,289.66L823.92,284.8L824.66,283.3L825,283.16L824.95,281.93L825.07,280.92L825.64,280.72L825.01,279.7L824.54,278.72L824.62,277.46L824.92,276.73L824.93,276.23L825.21,275.85L824.99,275.45L825.15,274.46L825.4,273.83L825.9,274.38L826.57,273.8L827.42,273.73L826.87,274.47L826.5,274.52L825.86,275.86L825.58,275.99L825.31,276.98L825.27,277.68L825.8,278.79L825.73,279.18L826.13,279.83L826.98,280.19L828.04,279.23L828.2,278.76L828.76,278.71L829.46,277.71L829.88,277.6L830.6,278.65L830.81,279.35L831.2,279.76L831.93,280.06L832.16,280.76L832.49,280.76L833.67,281.27L833.79,280.82L833.31,279.94L832.92,279.65L833.2,279.05L832.64,278.35L833.31,277.16L833.75,275.34L834.85,275.11L835.53,275.18L835.59,274.54L835.04,273.41L835.02,272.53L834.57,272.2L834.63,271.6L834.07,270.55L834.18,269.66L833.54,269.02L833.43,268.29L833.66,268.01L833.56,267.19L833.74,266.76L833.73,266.1L833.27,265.71L832.88,264.41L831.92,263.83L831.8,263.48L830.97,263.35L830.71,263.03L830.2,262.97L830.19,262.48L829.86,262.17L829.04,261.85L827.92,262.01L827.37,261.4L826.94,261.37L826.54,260.49L825.79,259.92L825.06,259.55L824.19,259.54L823.92,259.03L823.32,258.66L822.91,258.16L823.25,257.27L823.23,256.2L823.57,255.18L823.58,254.43L821.61,252.79L821.08,252.8L820.64,252.45L819.76,252.39L820.12,251.62L820.17,251.07L820.59,250.68L820.36,250.33L820.69,249.68L816.58,250.5L816.41,250.53L815.97,251.34L816.2,251.6L815.77,252.71L815.14,253.12L815.01,254.98L814.81,255.3L814.77,255.99L815.03,256.69L814.8,257.41L814.9,258.23L814.6,259.66L814.62,260.1L813.78,260.34L813.23,260.16L813.32,259.7L813.09,259.16L813.33,258.88L812.89,258.15L812.17,258.11L812.22,257.72L811.87,256.79L811.36,256.82L811.18,257.9L810.04,259.68L809.83,259.72L808.93,261.93L808.8,262.63L808.67,263.47L808.43,263.93L808.49,264.72L808.15,266.11L808.27,266.46L807.84,267.27L807.61,268.61ZM-65,461L209.3,461L209.3,609.2L-65,609.2ZM209.3,520.8L338,520.8L338,609.2L209.3,609.2Z" class="p2r-b4" data-region-id="395209" data-ratio="20.11"><title>Washington, DC — P2R 20.11 (2026-05)</title></path>
  <path d="M-104,-4.4L1079,-4.4L1079,614.4L-104,614.4ZM77.19,374.28L77.7,375.46L78.61,375.77L78.97,376.1L78.96,376.82L78.64,377.64L78.91,378.29L79.31,378.55L80.53,378.82L81.33,379.51L81.76,379.35L81.8,378.77L80.88,376.79L80.2,376.23L79.81,376.09L79.25,375.51L78.76,375.22L78.24,374.65ZM-65,461L209.3,461L209.3,609.2L-65,609.2ZM209.3,520.8L338,520.8L338,609.2L209.3,609.2ZM-104,-4.4L1079,-4.4L1079,614.4L-104,614.4ZM74.68,384.15L74.88,384.69L74.91,385.6L75.21,386.3L75.19,387.12L75.66,388.01L75.63,388.61L76.07,389.02L76.71,390.09L77.98,389.51L76.34,387.11L75.55,385.4L75.24,384.26ZM-65,461L209.3,461L209.3,609.2L-65,609.2ZM209.3,520.8L338,520.8L338,609.2L209.3,609.2ZM-104,-4.4L1079,-4.4L1079,614.4L-104,614.4ZM79.29,343.96L79.68,346.95L80.97,356.07L80.78,357.25L80.13,357.09L79.74,358.69L77.55,358.16L74.29,359.55L74.06,360.18L75.63,360.82L76.31,361.81L76.83,361.44L77.8,361.4L78.29,361.59L79.14,361.58L80.08,361.88L81.29,362.1L81.92,362.77L82.55,364.29L83,367.29L82.76,367.98L82.12,368.35L82.13,369.31L82.95,369.58L84.17,370.62L84.79,370.51L85.39,370.09L85.99,370.42L86.43,369.78L86.95,370.02L87.93,370.93L89.13,373.02L90.05,374.04L90.22,374.38L91.15,374.93L92.01,376.12L92.51,376.44L93.27,378L93.35,378.56L93.98,378.66L94.86,379.8L95.16,380.67L95.83,379.28L96.57,379.4L97.16,379.16L97.33,378.43L97.48,377.78L99.87,375.43L98.99,374.15L97.95,373.76L98.16,372.69L97.39,372.25L96.17,369.41L95.35,368.47L94.47,367.23L94.42,366.7L95.3,365.78L95.86,366.03L97.64,363.09L98.89,360.4L99.48,356.71L100.03,354.34L99.9,354.31L101.27,348.41L99.34,347.96L92.21,346.33L85.43,344.77L79.92,343.43ZM-65,461L209.3,461L209.3,609.2L-65,609.2ZM209.3,520.8L338,520.8L338,609.2L209.3,609.2Z" class="p2r-b5" data-region-id="753899" data-ratio="27.75"><title>Los Angeles, CA — P2R 27.75 (2026-05)</title></path>
</svg>
